STARTFONT 2.1
FONT -Monotype-Century Gothic-Regular-I-Normal--14-140-75-75-P-73-iso8859-9
SIZE 14 75 75
FONTBOUNDINGBOX 19 18 -2 -3

STARTPROPERTIES 21
FOUNDRY "Monotype"
FAMILY_NAME "Century Gothic"
WEIGHT_NAME "Regular"
SLANT "I"
SETWIDTH_NAME "Normal"
ADD_STYLE_NAME ""
PIXEL_SIZE 14
POINT_SIZE 140
RESOLUTION_X 75
RESOLUTION_Y 75
SPACING "P"
AVERAGE_WIDTH 73
CHARSET_REGISTRY "iso8859"
CHARSET_ENCODING "9"
COPYRIGHT "Copyright (c) 1996 Monotype Typography Ltd."
CAP_HEIGHT 12
X_HEIGHT 9
WEIGHT 10
QUAD_WIDTH 10
FONT_DESCENT 3
FONT_ASCENT 15
ENDPROPERTIES

CHARS 191

STARTCHAR space
ENCODING 32
SWIDTH 277 0
DWIDTH 4 0
BBX 0 0 0 0
BITMAP
ENDCHAR

STARTCHAR exclam
ENCODING 33
SWIDTH 295 0
DWIDTH 4 0
BBX 3 11 1 0
BITMAP
20
20
20
20
40
40
40
40
00
80
80
ENDCHAR

STARTCHAR quotedbl
ENCODING 34
SWIDTH 309 0
DWIDTH 5 0
BBX 4 4 1 7
BITMAP
90
90
90
90
ENDCHAR

STARTCHAR numbersign
ENCODING 35
SWIDTH 720 0
DWIDTH 11 0
BBX 8 12 2 0
BITMAP
12
12
12
12
7F
24
24
FE
48
48
48
48
ENDCHAR

STARTCHAR dollar
ENCODING 36
SWIDTH 554 0
DWIDTH 8 0
BBX 7 14 1 -2
BITMAP
08
3C
4A
48
48
30
10
18
24
24
A4
78
20
20
ENDCHAR

STARTCHAR percent
ENCODING 37
SWIDTH 775 0
DWIDTH 12 0
BBX 11 13 1 -2
BITMAP
01C0
7A80
8D00
8900
8A00
7400
0400
09E0
0A20
1220
2220
21C0
4000
ENDCHAR

STARTCHAR ampersand
ENCODING 38
SWIDTH 757 0
DWIDTH 11 0
BBX 10 11 1 0
BITMAP
1C00
2200
2200
1400
1800
3800
4400
8280
8300
8680
7840
ENDCHAR

STARTCHAR quoteright
ENCODING 39
SWIDTH 351 0
DWIDTH 5 0
BBX 2 4 2 7
BITMAP
40
40
40
80
ENDCHAR

STARTCHAR parenleft
ENCODING 40
SWIDTH 369 0
DWIDTH 6 0
BBX 4 15 2 -3
BITMAP
10
20
20
40
40
40
80
80
80
80
80
80
40
40
20
ENDCHAR

STARTCHAR parenright
ENCODING 41
SWIDTH 369 0
DWIDTH 6 0
BBX 4 15 1 -3
BITMAP
40
20
20
10
10
10
10
10
10
20
20
20
40
40
80
ENDCHAR

STARTCHAR asterisk
ENCODING 42
SWIDTH 425 0
DWIDTH 6 0
BBX 5 6 1 5
BITMAP
20
A8
68
B0
A8
20
ENDCHAR

STARTCHAR plus
ENCODING 43
SWIDTH 606 0
DWIDTH 9 0
BBX 7 7 1 2
BITMAP
10
10
10
FE
10
10
10
ENDCHAR

STARTCHAR comma
ENCODING 44
SWIDTH 277 0
DWIDTH 4 0
BBX 3 4 0 -2
BITMAP
20
60
40
80
ENDCHAR

STARTCHAR minus
ENCODING 45
SWIDTH 606 0
DWIDTH 9 0
BBX 7 1 1 5
BITMAP
FE
ENDCHAR

STARTCHAR period
ENCODING 46
SWIDTH 277 0
DWIDTH 4 0
BBX 1 2 1 0
BITMAP
80
80
ENDCHAR

STARTCHAR slash
ENCODING 47
SWIDTH 437 0
DWIDTH 7 0
BBX 5 13 1 -2
BITMAP
08
08
10
10
10
20
20
20
40
40
80
80
80
ENDCHAR

STARTCHAR zero
ENCODING 48
SWIDTH 554 0
DWIDTH 8 0
BBX 7 11 1 0
BITMAP
1C
66
42
42
82
82
82
84
84
CC
70
ENDCHAR

STARTCHAR one
ENCODING 49
SWIDTH 554 0
DWIDTH 8 0
BBX 3 11 3 0
BITMAP
E0
20
20
20
40
40
40
80
80
80
80
ENDCHAR

STARTCHAR two
ENCODING 50
SWIDTH 554 0
DWIDTH 8 0
BBX 8 11 0 0
BITMAP
1C
22
41
41
02
04
08
10
20
40
FE
ENDCHAR

STARTCHAR three
ENCODING 51
SWIDTH 554 0
DWIDTH 8 0
BBX 8 11 0 0
BITMAP
1E
21
01
01
06
18
04
02
82
44
38
ENDCHAR

STARTCHAR four
ENCODING 52
SWIDTH 554 0
DWIDTH 8 0
BBX 7 11 1 0
BITMAP
02
06
0A
12
12
24
44
84
FE
08
08
ENDCHAR

STARTCHAR five
ENCODING 53
SWIDTH 554 0
DWIDTH 8 0
BBX 8 11 0 0
BITMAP
0F
08
10
10
38
04
02
02
82
44
38
ENDCHAR

STARTCHAR six
ENCODING 54
SWIDTH 554 0
DWIDTH 8 0
BBX 7 11 1 0
BITMAP
04
08
10
20
78
44
82
82
82
44
38
ENDCHAR

STARTCHAR seven
ENCODING 55
SWIDTH 554 0
DWIDTH 8 0
BBX 7 11 2 0
BITMAP
7E
04
08
08
10
10
20
40
40
80
80
ENDCHAR

STARTCHAR eight
ENCODING 56
SWIDTH 554 0
DWIDTH 8 0
BBX 8 11 0 0
BITMAP
1E
21
41
41
42
3C
42
82
82
84
78
ENDCHAR

STARTCHAR nine
ENCODING 57
SWIDTH 554 0
DWIDTH 8 0
BBX 7 11 1 0
BITMAP
38
44
82
82
82
44
3C
08
10
20
40
ENDCHAR

STARTCHAR colon
ENCODING 58
SWIDTH 277 0
DWIDTH 4 0
BBX 2 8 1 0
BITMAP
40
40
00
00
00
00
80
80
ENDCHAR

STARTCHAR semicolon
ENCODING 59
SWIDTH 277 0
DWIDTH 4 0
BBX 4 10 0 -2
BITMAP
10
10
00
00
00
00
20
60
40
80
ENDCHAR

STARTCHAR less
ENCODING 60
SWIDTH 606 0
DWIDTH 9 0
BBX 7 7 1 2
BITMAP
06
18
60
80
60
18
04
ENDCHAR

STARTCHAR equal
ENCODING 61
SWIDTH 606 0
DWIDTH 9 0
BBX 7 4 1 3
BITMAP
FE
00
00
FE
ENDCHAR

STARTCHAR greater
ENCODING 62
SWIDTH 606 0
DWIDTH 9 0
BBX 7 7 1 2
BITMAP
40
30
0C
02
0C
30
C0
ENDCHAR

STARTCHAR question
ENCODING 63
SWIDTH 591 0
DWIDTH 9 0
BBX 6 12 2 0
BITMAP
78
84
84
08
30
40
88
88
70
00
40
40
ENDCHAR

STARTCHAR at
ENCODING 64
SWIDTH 867 0
DWIDTH 13 0
BBX 12 12 1 0
BITMAP
1F80
6060
4020
8E90
9190
9090
9090
91A0
8EC0
4000
60C0
1F00
ENDCHAR

STARTCHAR A
ENCODING 65
SWIDTH 740 0
DWIDTH 10 0
BBX 10 11 0 0
BITMAP
0200
0200
0600
0900
0900
1100
3F00
2080
4080
8040
8040
ENDCHAR

STARTCHAR B
ENCODING 66
SWIDTH 574 0
DWIDTH 9 0
BBX 7 11 1 0
BITMAP
38
24
22
42
44
78
44
42
82
84
F8
ENDCHAR

STARTCHAR C
ENCODING 67
SWIDTH 813 0
DWIDTH 12 0
BBX 11 11 1 0
BITMAP
0F80
3060
6020
4000
8000
8000
8000
8000
4040
60C0
1F00
ENDCHAR

STARTCHAR D
ENCODING 68
SWIDTH 744 0
DWIDTH 11 0
BBX 10 11 1 0
BITMAP
3E00
2180
2080
4040
4040
4040
4040
4080
8180
8300
FC00
ENDCHAR

STARTCHAR E
ENCODING 69
SWIDTH 536 0
DWIDTH 8 0
BBX 7 11 1 0
BITMAP
3E
20
20
40
40
7C
40
40
80
80
FC
ENDCHAR

STARTCHAR F
ENCODING 70
SWIDTH 485 0
DWIDTH 7 0
BBX 7 11 1 0
BITMAP
3E
20
20
40
40
7C
40
40
80
80
80
ENDCHAR

STARTCHAR G
ENCODING 71
SWIDTH 872 0
DWIDTH 13 0
BBX 11 11 1 0
BITMAP
0F00
30C0
6040
4000
8000
8000
83E0
8020
4040
60C0
1F00
ENDCHAR

STARTCHAR H
ENCODING 72
SWIDTH 683 0
DWIDTH 10 0
BBX 9 11 1 0
BITMAP
2080
2080
2080
4100
4100
7F00
4100
4100
8200
8200
8200
ENDCHAR

STARTCHAR I
ENCODING 73
SWIDTH 226 0
DWIDTH 4 0
BBX 3 11 1 0
BITMAP
20
20
20
40
40
40
40
40
80
80
80
ENDCHAR

STARTCHAR J
ENCODING 74
SWIDTH 482 0
DWIDTH 7 0
BBX 7 11 0 0
BITMAP
02
02
02
04
04
04
04
08
08
88
70
ENDCHAR

STARTCHAR K
ENCODING 75
SWIDTH 591 0
DWIDTH 9 0
BBX 8 11 1 0
BITMAP
21
22
24
48
50
60
50
48
88
84
82
ENDCHAR

STARTCHAR L
ENCODING 76
SWIDTH 462 0
DWIDTH 7 0
BBX 6 11 1 0
BITMAP
20
20
20
40
40
40
40
40
80
80
FC
ENDCHAR

STARTCHAR M
ENCODING 77
SWIDTH 919 0
DWIDTH 14 0
BBX 12 11 1 0
BITMAP
1010
1010
1030
2850
2850
2890
4490
4510
4510
8210
8210
ENDCHAR

STARTCHAR N
ENCODING 78
SWIDTH 740 0
DWIDTH 10 0
BBX 9 11 1 0
BITMAP
2080
2080
2080
5100
5100
4900
4900
4500
8600
8200
8200
ENDCHAR

STARTCHAR O
ENCODING 79
SWIDTH 869 0
DWIDTH 13 0
BBX 11 11 1 0
BITMAP
0F00
30C0
6040
4020
8020
8020
8020
8040
40C0
6180
1E00
ENDCHAR

STARTCHAR P
ENCODING 80
SWIDTH 592 0
DWIDTH 9 0
BBX 8 11 1 0
BITMAP
3C
22
21
41
42
7C
40
40
80
80
80
ENDCHAR

STARTCHAR Q
ENCODING 81
SWIDTH 871 0
DWIDTH 13 0
BBX 11 11 1 0
BITMAP
0F00
30C0
6040
4020
8020
8020
8020
8340
40C0
61C0
1E60
ENDCHAR

STARTCHAR R
ENCODING 82
SWIDTH 607 0
DWIDTH 9 0
BBX 8 11 1 0
BITMAP
3C
22
21
41
42
7C
50
48
84
84
82
ENDCHAR

STARTCHAR S
ENCODING 83
SWIDTH 498 0
DWIDTH 7 0
BBX 7 11 0 0
BITMAP
3C
42
40
40
20
10
08
04
04
84
78
ENDCHAR

STARTCHAR T
ENCODING 84
SWIDTH 426 0
DWIDTH 6 0
BBX 7 11 1 0
BITMAP
FE
10
10
10
20
20
20
20
40
40
40
ENDCHAR

STARTCHAR U
ENCODING 85
SWIDTH 655 0
DWIDTH 10 0
BBX 9 11 1 0
BITMAP
2080
2080
2080
4100
4100
4100
4100
8200
8200
8400
7800
ENDCHAR

STARTCHAR V
ENCODING 86
SWIDTH 702 0
DWIDTH 11 0
BBX 9 11 2 0
BITMAP
8080
8080
8100
8200
8200
4400
4800
4800
5000
2000
2000
ENDCHAR

STARTCHAR W
ENCODING 87
SWIDTH 960 0
DWIDTH 13 0
BBX 13 11 1 0
BITMAP
8208
8208
8610
4510
4920
4920
5140
50C0
2080
2080
2080
ENDCHAR

STARTCHAR X
ENCODING 88
SWIDTH 609 0
DWIDTH 9 0
BBX 9 11 0 0
BITMAP
2080
2080
1100
1200
0C00
0800
1400
2400
4200
8200
8100
ENDCHAR

STARTCHAR Y
ENCODING 89
SWIDTH 592 0
DWIDTH 9 0
BBX 8 11 2 0
BITMAP
81
82
44
48
30
20
20
40
40
40
40
ENDCHAR

STARTCHAR Z
ENCODING 90
SWIDTH 480 0
DWIDTH 7 0
BBX 8 11 0 0
BITMAP
7F
02
04
04
08
08
10
20
20
40
FC
ENDCHAR

STARTCHAR bracketleft
ENCODING 91
SWIDTH 351 0
DWIDTH 5 0
BBX 4 14 1 -3
BITMAP
30
20
20
20
20
40
40
40
40
80
80
80
80
C0
ENDCHAR

STARTCHAR backslash
ENCODING 92
SWIDTH 605 0
DWIDTH 9 0
BBX 9 13 0 -2
BITMAP
8000
4000
2000
2000
1000
1000
0800
0400
0400
0200
0200
0100
0080
ENDCHAR

STARTCHAR bracketright
ENCODING 93
SWIDTH 351 0
DWIDTH 5 0
BBX 4 14 1 -3
BITMAP
30
10
10
10
10
20
20
20
20
40
40
40
40
C0
ENDCHAR

STARTCHAR asciicircum
ENCODING 94
SWIDTH 672 0
DWIDTH 10 0
BBX 8 8 2 3
BITMAP
10
10
28
28
44
44
82
81
ENDCHAR

STARTCHAR underscore
ENCODING 95
SWIDTH 500 0
DWIDTH 8 0
BBX 8 1 0 -2
BITMAP
FF
ENDCHAR

STARTCHAR quoteleft
ENCODING 96
SWIDTH 351 0
DWIDTH 5 0
BBX 2 4 3 7
BITMAP
40
80
80
80
ENDCHAR

STARTCHAR a
ENCODING 97
SWIDTH 683 0
DWIDTH 10 0
BBX 9 8 1 0
BITMAP
1E80
6180
4080
8080
8100
8100
4300
3D00
ENDCHAR

STARTCHAR b
ENCODING 98
SWIDTH 682 0
DWIDTH 10 0
BBX 9 11 1 0
BITMAP
2000
2000
2000
5E00
6100
4080
4080
8080
8100
C300
BC00
ENDCHAR

STARTCHAR c
ENCODING 99
SWIDTH 647 0
DWIDTH 9 0
BBX 8 8 1 0
BITMAP
1E
61
40
80
80
80
42
3C
ENDCHAR

STARTCHAR d
ENCODING 100
SWIDTH 685 0
DWIDTH 10 0
BBX 10 11 1 0
BITMAP
0040
0040
0040
1E80
6180
4080
8080
8100
8100
4300
3D00
ENDCHAR

STARTCHAR e
ENCODING 101
SWIDTH 650 0
DWIDTH 9 0
BBX 8 8 1 0
BITMAP
1E
61
41
FF
80
80
42
3C
ENDCHAR

STARTCHAR f
ENCODING 102
SWIDTH 314 0
DWIDTH 5 0
BBX 5 11 1 0
BITMAP
18
20
20
F0
40
40
40
40
80
80
80
ENDCHAR

STARTCHAR g
ENCODING 103
SWIDTH 673 0
DWIDTH 10 0
BBX 9 11 1 -3
BITMAP
1E80
6180
4080
8080
8100
8100
4300
3E00
0200
8400
7800
ENDCHAR

STARTCHAR h
ENCODING 104
SWIDTH 610 0
DWIDTH 9 0
BBX 8 11 1 0
BITMAP
20
20
20
5E
61
41
41
42
82
82
82
ENDCHAR

STARTCHAR i
ENCODING 105
SWIDTH 200 0
DWIDTH 3 0
BBX 3 11 1 0
BITMAP
20
20
00
40
40
40
40
80
80
80
80
ENDCHAR

STARTCHAR j
ENCODING 106
SWIDTH 203 0
DWIDTH 3 0
BBX 6 14 -2 -3
BITMAP
04
04
00
08
08
08
10
10
10
10
20
20
20
C0
ENDCHAR

STARTCHAR k
ENCODING 107
SWIDTH 502 0
DWIDTH 8 0
BBX 7 11 1 0
BITMAP
20
20
20
42
4C
50
60
90
90
88
84
ENDCHAR

STARTCHAR l
ENCODING 108
SWIDTH 200 0
DWIDTH 3 0
BBX 3 11 1 0
BITMAP
20
20
20
40
40
40
40
80
80
80
80
ENDCHAR

STARTCHAR m
ENCODING 109
SWIDTH 938 0
DWIDTH 13 0
BBX 12 8 1 0
BITMAP
5CE0
6310
4210
4210
8420
8420
8420
8420
ENDCHAR

STARTCHAR n
ENCODING 110
SWIDTH 610 0
DWIDTH 9 0
BBX 8 8 1 0
BITMAP
5E
61
41
41
82
82
82
82
ENDCHAR

STARTCHAR o
ENCODING 111
SWIDTH 655 0
DWIDTH 10 0
BBX 9 8 1 0
BITMAP
1E00
6100
4080
8080
8080
8100
4300
3C00
ENDCHAR

STARTCHAR p
ENCODING 112
SWIDTH 682 0
DWIDTH 10 0
BBX 10 11 0 -3
BITMAP
2F00
3080
2040
2040
4040
4080
6180
5E00
8000
8000
8000
ENDCHAR

STARTCHAR q
ENCODING 113
SWIDTH 682 0
DWIDTH 10 0
BBX 9 11 1 -3
BITMAP
1E80
6180
4080
8080
8100
8100
4300
3D00
0200
0200
0200
ENDCHAR

STARTCHAR r
ENCODING 114
SWIDTH 301 0
DWIDTH 5 0
BBX 5 8 1 0
BITMAP
58
60
40
40
80
80
80
80
ENDCHAR

STARTCHAR s
ENCODING 115
SWIDTH 388 0
DWIDTH 6 0
BBX 6 8 0 0
BITMAP
38
44
40
20
10
08
88
70
ENDCHAR

STARTCHAR t
ENCODING 116
SWIDTH 339 0
DWIDTH 5 0
BBX 4 11 2 0
BITMAP
20
20
20
F0
40
40
40
80
80
80
80
ENDCHAR

STARTCHAR u
ENCODING 117
SWIDTH 608 0
DWIDTH 9 0
BBX 8 8 1 0
BITMAP
41
41
41
41
82
82
84
78
ENDCHAR

STARTCHAR v
ENCODING 118
SWIDTH 554 0
DWIDTH 8 0
BBX 7 8 1 0
BITMAP
82
82
84
44
48
50
20
20
ENDCHAR

STARTCHAR w
ENCODING 119
SWIDTH 831 0
DWIDTH 12 0
BBX 11 8 1 0
BITMAP
8420
8420
8440
4C40
5280
3280
2100
2100
ENDCHAR

STARTCHAR x
ENCODING 120
SWIDTH 480 0
DWIDTH 7 0
BBX 8 8 0 0
BITMAP
41
22
24
18
18
24
44
82
ENDCHAR

STARTCHAR y
ENCODING 121
SWIDTH 536 0
DWIDTH 8 0
BBX 7 11 1 -3
BITMAP
82
82
84
44
48
50
20
20
40
40
80
ENDCHAR

STARTCHAR z
ENCODING 122
SWIDTH 425 0
DWIDTH 6 0
BBX 6 8 0 0
BITMAP
7C
08
10
10
20
20
40
F8
ENDCHAR

STARTCHAR braceleft
ENCODING 123
SWIDTH 351 0
DWIDTH 5 0
BBX 5 14 0 -3
BITMAP
08
10
10
20
20
40
80
40
40
40
40
20
20
10
ENDCHAR

STARTCHAR bar
ENCODING 124
SWIDTH 672 0
DWIDTH 10 0
BBX 1 14 5 -3
BITMAP
80
80
80
80
80
80
80
80
80
80
80
80
80
80
ENDCHAR

STARTCHAR braceright
ENCODING 125
SWIDTH 351 0
DWIDTH 5 0
BBX 5 14 0 -3
BITMAP
40
20
20
10
10
10
10
08
10
20
20
40
40
80
ENDCHAR

STARTCHAR asciitilde
ENCODING 126
SWIDTH 606 0
DWIDTH 9 0
BBX 7 2 1 4
BITMAP
62
9C
ENDCHAR

STARTCHAR space
ENCODING 160
SWIDTH 277 0
DWIDTH 4 0
BBX 0 0 0 0
BITMAP
ENDCHAR

STARTCHAR exclamdown
ENCODING 161
SWIDTH 295 0
DWIDTH 4 0
BBX 3 11 1 -3
BITMAP
20
20
00
40
40
40
40
80
80
80
80
ENDCHAR

STARTCHAR cent
ENCODING 162
SWIDTH 554 0
DWIDTH 8 0
BBX 8 12 0 -2
BITMAP
01
02
1E
65
48
88
90
A0
62
7C
80
80
ENDCHAR

STARTCHAR sterling
ENCODING 163
SWIDTH 554 0
DWIDTH 8 0
BBX 9 11 -1 0
BITMAP
0700
0880
0880
0800
0800
3E00
1000
1000
7100
9900
EE00
ENDCHAR

STARTCHAR currency
ENCODING 164
SWIDTH 554 0
DWIDTH 8 0
BBX 8 7 0 2
BITMAP
BD
42
81
81
81
42
BD
ENDCHAR

STARTCHAR yen
ENCODING 165
SWIDTH 554 0
DWIDTH 8 0
BBX 8 11 0 0
BITMAP
41
41
22
24
18
7E
10
FC
10
10
10
ENDCHAR

STARTCHAR brokenbar
ENCODING 166
SWIDTH 672 0
DWIDTH 10 0
BBX 1 14 5 -3
BITMAP
80
80
80
80
80
00
00
00
00
80
80
80
80
80
ENDCHAR

STARTCHAR section
ENCODING 167
SWIDTH 615 0
DWIDTH 9 0
BBX 8 14 1 -3
BITMAP
0E
11
10
08
38
44
42
42
22
1C
10
08
88
70
ENDCHAR

STARTCHAR dieresis
ENCODING 168
SWIDTH 369 0
DWIDTH 6 0
BBX 6 2 0 9
BITMAP
CC
CC
ENDCHAR

STARTCHAR copyright
ENCODING 169
SWIDTH 747 0
DWIDTH 11 0
BBX 11 11 0 0
BITMAP
1F00
60C0
4E40
9120
9020
9020
9020
9120
4E40
60C0
1F00
ENDCHAR

STARTCHAR ordfeminine
ENCODING 170
SWIDTH 369 0
DWIDTH 6 0
BBX 5 5 1 6
BITMAP
68
98
88
90
70
ENDCHAR

STARTCHAR guillemotleft
ENCODING 171
SWIDTH 425 0
DWIDTH 6 0
BBX 6 8 0 0
BITMAP
24
24
48
90
90
48
48
24
ENDCHAR

STARTCHAR logicalnot
ENCODING 172
SWIDTH 606 0
DWIDTH 9 0
BBX 7 4 1 3
BITMAP
FE
02
02
02
ENDCHAR

STARTCHAR hyphen
ENCODING 173
SWIDTH 332 0
DWIDTH 5 0
BBX 4 1 0 4
BITMAP
F0
ENDCHAR

STARTCHAR registered
ENCODING 174
SWIDTH 747 0
DWIDTH 11 0
BBX 11 11 0 0
BITMAP
1F00
60C0
5E40
9120
9120
9E20
9120
9120
5140
60C0
1F00
ENDCHAR

STARTCHAR macron
ENCODING 175
SWIDTH 485 0
DWIDTH 7 0
BBX 5 1 2 10
BITMAP
F8
ENDCHAR

STARTCHAR degree
ENCODING 176
SWIDTH 400 0
DWIDTH 6 0
BBX 5 5 1 6
BITMAP
70
88
88
88
70
ENDCHAR

STARTCHAR plusminus
ENCODING 177
SWIDTH 606 0
DWIDTH 9 0
BBX 7 10 1 0
BITMAP
10
10
10
FE
10
10
10
00
00
FE
ENDCHAR

STARTCHAR twosuperior
ENCODING 178
SWIDTH 332 0
DWIDTH 5 0
BBX 5 6 0 5
BITMAP
30
48
08
10
20
F0
ENDCHAR

STARTCHAR threesuperior
ENCODING 179
SWIDTH 332 0
DWIDTH 5 0
BBX 5 6 0 5
BITMAP
30
48
10
08
90
60
ENDCHAR

STARTCHAR acute
ENCODING 180
SWIDTH 375 0
DWIDTH 6 0
BBX 3 3 2 9
BITMAP
60
40
80
ENDCHAR

STARTCHAR mu
ENCODING 181
SWIDTH 608 0
DWIDTH 9 0
BBX 8 11 1 -3
BITMAP
21
21
21
21
42
42
46
7A
80
80
80
ENDCHAR

STARTCHAR paragraph
ENCODING 182
SWIDTH 564 0
DWIDTH 8 0
BBX 7 13 1 -2
BITMAP
3E
74
F4
F4
F4
74
34
14
14
14
14
14
14
ENDCHAR

STARTCHAR periodcentered
ENCODING 183
SWIDTH 277 0
DWIDTH 4 0
BBX 2 2 1 4
BITMAP
C0
C0
ENDCHAR

STARTCHAR cedilla
ENCODING 184
SWIDTH 324 0
DWIDTH 5 0
BBX 3 3 1 -3
BITMAP
40
20
C0
ENDCHAR

STARTCHAR onesuperior
ENCODING 185
SWIDTH 332 0
DWIDTH 5 0
BBX 2 6 2 5
BITMAP
C0
40
40
80
80
80
ENDCHAR

STARTCHAR ordmasculine
ENCODING 186
SWIDTH 369 0
DWIDTH 6 0
BBX 5 5 1 6
BITMAP
30
48
88
90
60
ENDCHAR

STARTCHAR guillemotright
ENCODING 187
SWIDTH 425 0
DWIDTH 6 0
BBX 6 8 0 0
BITMAP
90
48
48
24
24
48
90
90
ENDCHAR

STARTCHAR onequarter
ENCODING 188
SWIDTH 831 0
DWIDTH 12 0
BBX 10 11 1 0
BITMAP
C100
4200
4200
8400
8800
8840
10C0
2140
2280
47C0
8080
ENDCHAR

STARTCHAR onehalf
ENCODING 189
SWIDTH 831 0
DWIDTH 12 0
BBX 10 11 1 0
BITMAP
C100
4200
4200
8400
8800
8980
1240
2040
2080
4100
8780
ENDCHAR

STARTCHAR threequarters
ENCODING 190
SWIDTH 831 0
DWIDTH 12 0
BBX 12 11 0 0
BITMAP
3040
4880
1080
0900
9200
6210
0430
0850
08A0
11F0
2020
ENDCHAR

STARTCHAR questiondown
ENCODING 191
SWIDTH 591 0
DWIDTH 9 0
BBX 6 12 2 -3
BITMAP
18
18
00
38
44
44
08
30
40
84
84
78
ENDCHAR

STARTCHAR Agrave
ENCODING 192
SWIDTH 740 0
DWIDTH 10 0
BBX 10 15 0 0
BITMAP
0C00
0400
0200
0000
0200
0200
0600
0900
0900
1100
3F00
2080
4080
8040
8040
ENDCHAR

STARTCHAR Aacute
ENCODING 193
SWIDTH 740 0
DWIDTH 10 0
BBX 10 15 0 0
BITMAP
0180
0100
0200
0000
0200
0200
0600
0900
0900
1100
3F00
2080
4080
8040
8040
ENDCHAR

STARTCHAR Acircumflex
ENCODING 194
SWIDTH 740 0
DWIDTH 10 0
BBX 10 15 0 0
BITMAP
0200
0500
0880
0000
0200
0200
0600
0900
0900
1100
3F00
2080
4080
8040
8040
ENDCHAR

STARTCHAR Atilde
ENCODING 195
SWIDTH 740 0
DWIDTH 10 0
BBX 10 14 0 0
BITMAP
0C80
1300
0000
0200
0200
0600
0900
0900
1100
3F00
2080
4080
8040
8040
ENDCHAR

STARTCHAR Adieresis
ENCODING 196
SWIDTH 740 0
DWIDTH 10 0
BBX 10 14 0 0
BITMAP
0880
0880
0000
0000
0200
0600
0900
0900
1100
3F00
2080
4080
8040
8040
ENDCHAR

STARTCHAR Aring
ENCODING 197
SWIDTH 740 0
DWIDTH 10 0
BBX 10 15 0 0
BITMAP
0600
0900
0900
0600
0200
0200
0600
0900
0900
1100
3F00
2080
4080
8040
8040
ENDCHAR

STARTCHAR AE
ENCODING 198
SWIDTH 992 0
DWIDTH 15 0
BBX 14 11 1 0
BITMAP
01FC
0240
0440
0480
0880
10F8
1080
3F80
4100
8100
81F8
ENDCHAR

STARTCHAR Ccedilla
ENCODING 199
SWIDTH 813 0
DWIDTH 12 0
BBX 11 14 1 -3
BITMAP
0F80
3060
6020
4000
8000
8000
8000
8000
4040
60C0
1F00
0800
0400
1800
ENDCHAR

STARTCHAR Egrave
ENCODING 200
SWIDTH 536 0
DWIDTH 8 0
BBX 7 15 1 0
BITMAP
18
08
04
00
3E
20
20
40
40
7C
40
40
80
80
FC
ENDCHAR

STARTCHAR Eacute
ENCODING 201
SWIDTH 536 0
DWIDTH 8 0
BBX 7 15 1 0
BITMAP
06
04
08
00
3E
20
20
40
40
7C
40
40
80
80
FC
ENDCHAR

STARTCHAR Ecircumflex
ENCODING 202
SWIDTH 536 0
DWIDTH 8 0
BBX 8 15 1 0
BITMAP
04
0A
11
00
3E
20
20
40
40
7C
40
40
80
80
FC
ENDCHAR

STARTCHAR Edieresis
ENCODING 203
SWIDTH 536 0
DWIDTH 8 0
BBX 7 14 1 0
BITMAP
12
12
00
3E
20
20
40
40
7C
40
40
80
80
FC
ENDCHAR

STARTCHAR Igrave
ENCODING 204
SWIDTH 226 0
DWIDTH 4 0
BBX 4 15 1 0
BITMAP
60
20
10
00
20
20
20
40
40
40
40
40
80
80
80
ENDCHAR

STARTCHAR Iacute
ENCODING 205
SWIDTH 226 0
DWIDTH 4 0
BBX 5 15 1 0
BITMAP
18
10
20
00
20
20
20
40
40
40
40
40
80
80
80
ENDCHAR

STARTCHAR Icircumflex
ENCODING 206
SWIDTH 226 0
DWIDTH 4 0
BBX 6 15 1 0
BITMAP
10
28
44
00
20
20
20
40
40
40
40
40
80
80
80
ENDCHAR

STARTCHAR Idieresis
ENCODING 207
SWIDTH 226 0
DWIDTH 4 0
BBX 5 14 1 0
BITMAP
48
48
00
20
20
20
40
40
40
40
40
80
80
80
ENDCHAR

STARTCHAR Gbreve
ENCODING 208
SWIDTH 872 0
DWIDTH 13 0
BBX 11 14 1 0
BITMAP
1080
0F00
0000
0F00
30C0
6040
4000
8000
8000
83E0
8020
4040
60C0
1F00
ENDCHAR

STARTCHAR Ntilde
ENCODING 209
SWIDTH 740 0
DWIDTH 10 0
BBX 10 14 1 0
BITMAP
0640
0980
0000
2080
2080
2080
5100
5100
4900
4900
4500
8600
8200
8200
ENDCHAR

STARTCHAR Ograve
ENCODING 210
SWIDTH 869 0
DWIDTH 13 0
BBX 11 15 1 0
BITMAP
0C00
0400
0200
0000
0F00
30C0
6040
4020
8020
8020
8020
8040
40C0
6180
1E00
ENDCHAR

STARTCHAR Oacute
ENCODING 211
SWIDTH 869 0
DWIDTH 13 0
BBX 11 15 1 0
BITMAP
0300
0200
0400
0000
0F00
30C0
6040
4020
8020
8020
8020
8040
40C0
6180
1E00
ENDCHAR

STARTCHAR Ocircumflex
ENCODING 212
SWIDTH 869 0
DWIDTH 13 0
BBX 11 15 1 0
BITMAP
0200
0500
0880
0000
0F00
30C0
6040
4020
8020
8020
8020
8040
40C0
6180
1E00
ENDCHAR

STARTCHAR Otilde
ENCODING 213
SWIDTH 869 0
DWIDTH 13 0
BBX 11 14 1 0
BITMAP
0C80
1300
0000
0F00
30C0
6040
4020
8020
8020
8020
8040
40C0
6180
1E00
ENDCHAR

STARTCHAR Odieresis
ENCODING 214
SWIDTH 869 0
DWIDTH 13 0
BBX 11 14 1 0
BITMAP
0440
0440
0000
0F00
30C0
6040
4020
8020
8020
8020
8040
40C0
6180
1E00
ENDCHAR

STARTCHAR multiply
ENCODING 215
SWIDTH 606 0
DWIDTH 9 0
BBX 7 7 1 2
BITMAP
82
44
28
10
28
44
82
ENDCHAR

STARTCHAR Oslash
ENCODING 216
SWIDTH 868 0
DWIDTH 13 0
BBX 11 11 1 0
BITMAP
0F60
30C0
60C0
4120
8220
8420
8820
9040
60C0
6180
DE00
ENDCHAR

STARTCHAR Ugrave
ENCODING 217
SWIDTH 655 0
DWIDTH 10 0
BBX 9 15 1 0
BITMAP
0C00
0400
0200
0000
2080
2080
2080
4100
4100
4100
4100
8200
8200
8400
7800
ENDCHAR

STARTCHAR Uacute
ENCODING 218
SWIDTH 655 0
DWIDTH 10 0
BBX 9 15 1 0
BITMAP
0300
0200
0400
0000
2080
2080
2080
4100
4100
4100
4100
8200
8200
8400
7800
ENDCHAR

STARTCHAR Ucircumflex
ENCODING 219
SWIDTH 655 0
DWIDTH 10 0
BBX 9 15 1 0
BITMAP
0200
0500
0880
0000
2080
2080
2080
4100
4100
4100
4100
8200
8200
8400
7800
ENDCHAR

STARTCHAR Udieresis
ENCODING 220
SWIDTH 655 0
DWIDTH 10 0
BBX 9 15 1 0
BITMAP
0900
0900
0000
0000
2080
2080
2080
4100
4100
4100
4100
8200
8200
8400
7800
ENDCHAR

STARTCHAR Idotaccent
ENCODING 221
SWIDTH 226 0
DWIDTH 4 0
BBX 4 15 1 0
BITMAP
10
10
00
00
20
20
20
40
40
40
40
40
80
80
80
ENDCHAR

STARTCHAR Scedilla
ENCODING 222
SWIDTH 498 0
DWIDTH 7 0
BBX 7 14 0 -3
BITMAP
3C
42
40
40
20
10
08
04
04
84
78
10
08
30
ENDCHAR

STARTCHAR germandbls
ENCODING 223
SWIDTH 554 0
DWIDTH 8 0
BBX 8 12 0 0
BITMAP
1C
22
22
22
44
4C
42
41
81
81
82
9C
ENDCHAR

STARTCHAR agrave
ENCODING 224
SWIDTH 683 0
DWIDTH 10 0
BBX 9 12 1 0
BITMAP
1800
0800
0400
0000
1E80
6180
4080
8080
8100
8100
4300
3D00
ENDCHAR

STARTCHAR aacute
ENCODING 225
SWIDTH 683 0
DWIDTH 10 0
BBX 9 12 1 0
BITMAP
0600
0400
0800
0000
1E80
6180
4080
8080
8100
8100
4300
3D00
ENDCHAR

STARTCHAR acircumflex
ENCODING 226
SWIDTH 683 0
DWIDTH 10 0
BBX 9 12 1 0
BITMAP
0400
0A00
1100
0000
1E80
6180
4080
8080
8100
8100
4300
3D00
ENDCHAR

STARTCHAR atilde
ENCODING 227
SWIDTH 683 0
DWIDTH 10 0
BBX 9 11 1 0
BITMAP
1900
2600
0000
1E80
6180
4080
8080
8100
8100
4300
3D00
ENDCHAR

STARTCHAR adieresis
ENCODING 228
SWIDTH 683 0
DWIDTH 10 0
BBX 9 11 1 0
BITMAP
0880
0880
0000
1E80
6180
4080
8080
8100
8100
4300
3D00
ENDCHAR

STARTCHAR aring
ENCODING 229
SWIDTH 683 0
DWIDTH 10 0
BBX 9 12 1 0
BITMAP
0C00
1200
0C00
0000
1E80
6180
4080
8080
8100
8100
4300
3D00
ENDCHAR

STARTCHAR ae
ENCODING 230
SWIDTH 1157 0
DWIDTH 17 0
BBX 16 8 1 0
BITMAP
1E9E
61E1
40C1
80FF
8180
8180
4342
3D3C
ENDCHAR

STARTCHAR ccedilla
ENCODING 231
SWIDTH 647 0
DWIDTH 9 0
BBX 8 11 1 -3
BITMAP
1E
61
40
80
80
80
42
3C
10
08
30
ENDCHAR

STARTCHAR egrave
ENCODING 232
SWIDTH 650 0
DWIDTH 9 0
BBX 8 12 1 0
BITMAP
18
08
04
00
1E
61
41
FF
80
80
42
3C
ENDCHAR

STARTCHAR eacute
ENCODING 233
SWIDTH 650 0
DWIDTH 9 0
BBX 8 12 1 0
BITMAP
06
04
08
00
1E
61
41
FF
80
80
42
3C
ENDCHAR

STARTCHAR ecircumflex
ENCODING 234
SWIDTH 650 0
DWIDTH 9 0
BBX 8 12 1 0
BITMAP
04
0A
11
00
1E
61
41
FF
80
80
42
3C
ENDCHAR

STARTCHAR edieresis
ENCODING 235
SWIDTH 650 0
DWIDTH 9 0
BBX 8 11 1 0
BITMAP
12
12
00
1E
61
41
FF
80
80
42
3C
ENDCHAR

STARTCHAR igrave
ENCODING 236
SWIDTH 200 0
DWIDTH 3 0
BBX 3 12 1 0
BITMAP
C0
40
20
00
40
40
40
40
80
80
80
80
ENDCHAR

STARTCHAR iacute
ENCODING 237
SWIDTH 200 0
DWIDTH 3 0
BBX 4 12 1 0
BITMAP
30
20
40
00
40
40
40
40
80
80
80
80
ENDCHAR

STARTCHAR icircumflex
ENCODING 238
SWIDTH 200 0
DWIDTH 3 0
BBX 5 12 0 0
BITMAP
20
50
88
00
20
20
20
20
40
40
40
40
ENDCHAR

STARTCHAR idieresis
ENCODING 239
SWIDTH 200 0
DWIDTH 3 0
BBX 4 11 1 0
BITMAP
90
90
00
40
40
40
40
80
80
80
80
ENDCHAR

STARTCHAR gbreve
ENCODING 240
SWIDTH 673 0
DWIDTH 10 0
BBX 9 14 1 -3
BITMAP
2100
1E00
0000
1E80
6180
4080
8080
8100
8100
4300
3E00
0200
8400
7800
ENDCHAR

STARTCHAR ntilde
ENCODING 241
SWIDTH 610 0
DWIDTH 9 0
BBX 8 11 1 0
BITMAP
32
4C
00
5E
61
41
41
82
82
82
82
ENDCHAR

STARTCHAR ograve
ENCODING 242
SWIDTH 655 0
DWIDTH 10 0
BBX 9 12 1 0
BITMAP
1800
0800
0400
0000
1E00
6100
4080
8080
8080
8100
4300
3C00
ENDCHAR

STARTCHAR oacute
ENCODING 243
SWIDTH 655 0
DWIDTH 10 0
BBX 9 12 1 0
BITMAP
0600
0400
0800
0000
1E00
6100
4080
8080
8080
8100
4300
3C00
ENDCHAR

STARTCHAR ocircumflex
ENCODING 244
SWIDTH 655 0
DWIDTH 10 0
BBX 9 12 1 0
BITMAP
0400
0A00
1100
0000
1E00
6100
4080
8080
8080
8100
4300
3C00
ENDCHAR

STARTCHAR otilde
ENCODING 245
SWIDTH 655 0
DWIDTH 10 0
BBX 9 11 1 0
BITMAP
0C80
1300
0000
1E00
6100
4080
8080
8080
8100
4300
3C00
ENDCHAR

STARTCHAR odieresis
ENCODING 246
SWIDTH 655 0
DWIDTH 10 0
BBX 9 11 1 0
BITMAP
1100
1100
0000
1E00
6100
4080
8080
8080
8100
4300
3C00
ENDCHAR

STARTCHAR divide
ENCODING 247
SWIDTH 606 0
DWIDTH 9 0
BBX 8 9 1 1
BITMAP
18
18
00
00
FF
00
00
18
18
ENDCHAR

STARTCHAR oslash
ENCODING 248
SWIDTH 653 0
DWIDTH 10 0
BBX 9 8 1 0
BITMAP
1E80
6100
4280
8C80
9080
A100
4300
BC00
ENDCHAR

STARTCHAR ugrave
ENCODING 249
SWIDTH 608 0
DWIDTH 9 0
BBX 8 12 1 0
BITMAP
18
08
04
00
41
41
41
41
82
82
84
78
ENDCHAR

STARTCHAR uacute
ENCODING 250
SWIDTH 608 0
DWIDTH 9 0
BBX 8 12 1 0
BITMAP
0C
08
10
00
41
41
41
41
82
82
84
78
ENDCHAR

STARTCHAR ucircumflex
ENCODING 251
SWIDTH 608 0
DWIDTH 9 0
BBX 8 12 1 0
BITMAP
04
0A
11
00
41
41
41
41
82
82
84
78
ENDCHAR

STARTCHAR udieresis
ENCODING 252
SWIDTH 608 0
DWIDTH 9 0
BBX 8 11 1 0
BITMAP
11
11
00
41
41
41
41
82
82
84
78
ENDCHAR

STARTCHAR dotlessi
ENCODING 253
SWIDTH 200 0
DWIDTH 3 0
BBX 2 8 1 0
BITMAP
40
40
40
40
80
80
80
80
ENDCHAR

STARTCHAR scedilla
ENCODING 254
SWIDTH 388 0
DWIDTH 6 0
BBX 6 11 0 -3
BITMAP
38
44
40
20
10
08
88
70
20
10
60
ENDCHAR

STARTCHAR ydieresis
ENCODING 255
SWIDTH 536 0
DWIDTH 8 0
BBX 7 14 1 -3
BITMAP
44
44
00
82
82
84
44
48
50
20
20
40
40
80
ENDCHAR
ENDFONT
